<?xml version="1.0" encoding="utf-8"?>
<!-- Generator: Adobe Illustrator 23.0.0, SVG Export Plug-In . SVG Version: 6.00 Build 0)  -->
<svg version="1.1" id="layer" xmlns="http://www.w3.org/2000/svg" xmlns:xlink="http://www.w3.org/1999/xlink" x="0px"
	 y="0px" viewBox="0 0 512 512" style="enable-background:new 0 0 512 512;" xml:space="preserve">
<style type="text/css">
	.st0{fill:#FFFFFF;}
	#layer {
		cursor:pointer
	}
</style>
<path d="M464,256c0-114.9-93.1-208-208-208S48,141.1,48,256s93.1,208,208,208S464,370.9,464,256z M0,256C0,114.6,114.6,0,256,0
	s256,114.6,256,256S397.4,512,256,512S0,397.4,0,256z"/>
<path d="M341.8,265.6c1.4-6.5,0.7-13.4-2.1-19.6l-62.8-141.3c-8.4-19-35.4-19-43.8,0L170.3,246c-2.8,6.3-3.5,13.1-2.1,19.6
	L341.8,265.6z"/>
<g>
	<g>
		<path d="M255,119.4l61,137.1l0,0.1l0,0.1c0.7,1.4,0.6,3.1-0.1,4.8L255,398.6l-60.9-137.1c-0.7-1.6-0.7-3.4,0-5L255,119.4
			 M255,90.4c-6.2,0-12.3,2.3-16.9,6.9c-2.1,2.1-3.7,4.5-5,7.4L170.3,246c-3.7,8.3-3.7,17.7,0,26l62.8,141.3
			c4.2,9.5,13.1,14.3,21.9,14.3c6.2,0,12.3-2.3,16.9-6.9c2.1-2.1,3.7-4.5,5-7.4L339.7,272c3.7-8.3,3.7-17.7,0-26l-62.8-141.3
			C272.7,95.2,263.9,90.4,255,90.4L255,90.4z"/>
	</g>
</g>
<circle class="st0" cx="255" cy="259" r="22"/>
<path d="M246,251.7c5.5-5.5,14.6-5.5,20.1,0c5.5,5.5,5.5,14.6,0,20.1s-14.6,5.5-20.1,0S240.4,257.2,246,251.7 M229.2,234.9
	c-14.8,14.8-14.8,38.7,0,53.5s38.7,14.8,53.5,0c14.8-14.8,14.8-38.7,0-53.5C268,220.1,244,220.1,229.2,234.9L229.2,234.9z"/>
</svg>
